<?xml version="1.0" standalone="no"?><!DOCTYPE svg PUBLIC "-//W3C//DTD SVG 1.1//EN" "http://www.w3.org/Graphics/SVG/1.1/DTD/svg11.dtd"><svg t="1718710776573" class="icon" viewBox="0 0 1024 1024" version="1.1" xmlns="http://www.w3.org/2000/svg" p-id="4257" xmlns:xlink="http://www.w3.org/1999/xlink" width="200" height="200"><path d="M981.952 688.128c13.44 0 24.32 10.88 24.32 24.32v171.328a23.744 23.744 0 0 1-23.68 23.808 23.488 23.488 0 0 0-23.552 23.488v0.256l0.256 24.704a24.384 24.384 0 0 1-24.32 24.704H105.6a24.384 24.384 0 0 1-24.32-24l-0.512-25.216a24.384 24.384 0 0 0-24.384-23.936H55.36a24.384 24.384 0 0 1-24.32-24.384v-170.688c0-13.44 10.88-24.384 24.32-24.384h926.592z m-585.216 48.768H128.64a24.384 24.384 0 0 0-24.32 21.504l-0.128 2.88v48.768c0 12.352 9.28 22.72 21.568 24.192l2.816 0.192H396.8a24.384 24.384 0 0 0 24.192-21.568l0.192-2.816v-48.768c0-13.44-10.88-24.384-24.32-24.384z m219.456 0a24.384 24.384 0 0 0-24.192 21.504l-0.192 2.88v48.768a24.384 24.384 0 0 0 48.64 2.816l0.128-2.816v-48.768c0-13.44-10.88-24.384-24.384-24.384z m97.536 0a24.384 24.384 0 0 0-24.192 21.504l-0.192 2.88v48.768a24.384 24.384 0 0 0 48.64 2.816l0.128-2.816v-48.768c0-13.44-10.88-24.384-24.384-24.384z m97.536 0a24.384 24.384 0 0 0-24.192 21.504l-0.192 2.88v48.768a24.384 24.384 0 0 0 48.64 2.816l0.128-2.816v-48.768c0-13.44-10.88-24.384-24.384-24.384z m97.536 0a24.384 24.384 0 0 0-24.192 21.504l-0.192 2.88v48.768a24.384 24.384 0 0 0 48.64 2.816l0.128-2.816v-48.768c0-13.44-10.88-24.384-24.384-24.384zM981.952 54.144c13.44 0 24.32 10.88 24.32 24.32v488.32a23.744 23.744 0 0 1-23.68 23.808 23.424 23.424 0 0 0-23.424 23.36v1.024a24 24 0 0 1-20.736 24.128l-2.816 0.256H105.408a24.384 24.384 0 0 1-24.384-23.744v-1.28a24.384 24.384 0 0 0-24.448-23.744H55.36a24.384 24.384 0 0 1-24.32-24.384v-487.68c0-13.44 10.88-24.384 24.32-24.384h926.592zM292.672 284.416c-66.88 0-112.96 47.808-112.96 130.048 0 81.92 46.08 132.096 112.96 132.096S405.76 496.384 405.76 414.464s-46.08-130.048-113.024-130.048z m494.976 0c-63.808 0-117.44 48.832-117.44 132.096 0 84.352 51.904 130.048 115.712 130.048 32.832 0 59.776-12.928 80.64-37.184l-26.688-31.36c-13.632 14.656-30.72 24.896-52.224 24.896-39.936 0-65.92-33.152-65.92-88.064 0-54.336 28.736-87.04 66.944-87.04 19.136 0 33.792 8.832 46.464 21.12l26.624-32.064a103.04 103.04 0 0 0-74.112-32.448z m-249.536 4.8H455.168v252.608h50.56V452.032h33.728c54.336 0 97.664-25.92 97.664-83.648 0-59.712-43.008-79.168-99.008-79.168z m-245.44 38.528c37.568 0 61.44 32.448 61.44 86.72 0 53.952-23.872 88.448-61.44 88.448s-61.44-34.496-61.44-88.448c0-54.272 23.872-86.72 61.44-86.72z m241.664 1.408c34.816 0 53.312 9.856 53.312 39.232 0 29.056-16.768 43.712-51.584 43.712h-30.4V329.152h28.672zM396.8 102.912H128.64a24.384 24.384 0 0 0-24.32 21.504l-0.128 2.88v48.768c0 12.352 9.28 22.784 21.568 24.192l2.816 0.192H396.8a24.384 24.384 0 0 0 24.192-21.568l0.192-2.816v-48.768a24.384 24.384 0 0 0-24.32-24.384z m219.456 0a24.384 24.384 0 0 0-24.192 21.504l-0.192 2.88v48.768a24.384 24.384 0 0 0 48.64 2.816l0.128-2.816v-48.768a24.384 24.384 0 0 0-24.384-24.384z m97.536 0a24.384 24.384 0 0 0-24.192 21.504l-0.192 2.88v48.768a24.384 24.384 0 0 0 48.64 2.816l0.128-2.816v-48.768a24.384 24.384 0 0 0-24.384-24.384z m97.536 0a24.384 24.384 0 0 0-24.192 21.504l-0.192 2.88v48.768a24.384 24.384 0 0 0 48.64 2.816l0.128-2.816v-48.768a24.384 24.384 0 0 0-24.384-24.384z m97.536 0a24.384 24.384 0 0 0-24.192 21.504l-0.192 2.88v48.768a24.384 24.384 0 0 0 48.64 2.816l0.128-2.816v-48.768a24.384 24.384 0 0 0-24.384-24.384z" fill="#579CF9" p-id="4258"></path></svg>